# xmcd CD database file
#
# Track frame offsets:
#	150
#	14204
#	25477
#	40148
#	53963
#	68353
#	81159
#	91452
#	103821
#	118461
#	128039
#	142868
#	157298
#	167119
#	176591
#	189739
#	200658
#	209172
#	222746
#	232848
#	243668
#
# Disc length: 3444 seconds
#
# Revision: 0
# Processed by: cddbd v1.5.1PL0 Copyright (c) Steve Scherf et al.
# Submitted via: CDex 1.51
#
DISCID=480d7215
DTITLE=Peggy Lee - Swinging Ladies of Jazz 
DYEAR=2002
DGENRE=Jazz
TTITLE0=Peggy Lee - Black Coffee
TTITLE1=Peggy Lee - I've Got You Under My Skin
TTITLE2=Peggy Lee - You Go To My Head
TTITLE3=Peggy Lee - I'm Glad I'm Glad There Is You
TTITLE4=Peggy Lee - River River
TTITLE5=Peggy Lee - Forgive Me
TTITLE6=Peggy Lee - I Didn't Know What Time It Was
TTITLE7=Peggy Lee - Easy Living
TTITLE8=Peggy Lee - When The World Was Young
TTITLE9=Peggy Lee - My Heart Belongs to Daddy
TTITLE10=Peggy Lee - Lover
TTITLE11=Peggy Lee - A Woman Alone With The Blues
TTITLE12=Peggy Lee - Aren't You Glad You're You
TTITLE13=Peggy Lee - Somebody Loves Me
TTITLE14=Peggy Lee - I Let A Song Go Out Of My Heart
TTITLE15=Peggy Lee - Goody Goody
TTITLE16=Peggy Lee - Save Your Sorrow for Tomorrow
TTITLE17=Peggy Lee - Travellin' Light
TTITLE18=Peggy Lee - I Ain't Got Nobody
TTITLE19=Peggy Lee - You're Driving Me Crazy
TTITLE20=Peggy Lee - Be Anything (But Be Mine)
EXTD=YEAR: 2002
EXTT0=
EXTT1=
EXTT2=
EXTT3=
EXTT4=
EXTT5=
EXTT6=
EXTT7=
EXTT8=
EXTT9=
EXTT10=
EXTT11=
EXTT12=
EXTT13=
EXTT14=
EXTT15=
EXTT16=
EXTT17=
EXTT18=
EXTT19=
EXTT20=
PLAYORDER=
